<?xml version="1.0" encoding="utf-8"?>
<!DOCTYPE svg PUBLIC "-//W3C//DTD SVG 1.0//EN" "http://www.w3.org/TR/2001/REC-SVG-20010904/DTD/svg10.dtd">
<svg version="1.0" xmlns="http://www.w3.org/2000/svg" width="1250px" height="360px" viewBox="0 0 1250 360" preserveAspectRatio="xMidYMid meet">
 <g fill="#000000">
  <path d="M1018.27 283.17 c-11.72 -4.83 -37.87 -13.44 -55.61 -18.34 -20.72 -5.76 -28.87 -8.34 -40.39 -13.04 -4.90 -1.99 -9.60 -3.91 -10.39 -4.24 l-1.52 -0.60 0 -21.72 c0 -16.02 0.20 -21.91 0.79 -22.51 1.06 -1.06 8.14 -1.06 9 0.07 0.33 0.40 1.32 3.05 2.12 5.76 2.05 6.95 6.69 16.15 10.59 20.99 8.01 9.86 22.38 16.88 34.76 16.88 11.39 -0.07 22.78 -6.75 27.01 -15.89 1.13 -2.45 1.46 -4.37 1.46 -9.07 0 -5.43 -0.20 -6.42 -2.18 -10.39 -4.17 -8.47 -11.12 -13.37 -35.02 -24.56 -28.54 -13.37 -36.81 -19.47 -42.97 -31.78 -1.26 -2.45 -2.71 -6.16 -3.24 -8.21 -1.32 -4.97 -1.26 -16.02 0 -21.05 3.64 -13.97 15.89 -24.76 33.57 -29.59 4.97 -1.39 6.95 -1.52 20.06 -1.52 16.09 0 19.33 0.53 33.70 5.36 3.64 1.26 7.94 2.25 9.60 2.25 1.72 0 3.38 0.26 3.77 0.53 0.46 0.26 1.32 8.61 2.32 22.78 1.26 18.54 1.39 22.44 0.66 23.31 -1.32 1.52 -8.14 1.46 -9.47 -0.07 -0.53 -0.66 -1.79 -3.71 -2.78 -6.75 -3.11 -9.93 -6.75 -16.35 -12.31 -21.91 -5.69 -5.76 -10.73 -8.67 -18.27 -10.59 -10.86 -2.78 -20.52 -0.66 -27.87 6.16 -10.79 9.93 -7.61 23.83 7.75 33.90 4.77 3.11 12.12 6.89 28.34 14.57 18.27 8.61 24.76 12.78 31.25 19.99 4.17 4.70 8.34 12.91 9.60 19.07 1.26 5.96 1.26 17.21 0 23.11 -2.25 10.59 -9.47 20.79 -18.87 26.62 l-4.04 2.45 1.52 1.66 c2.91 3.11 9.47 7.55 19 12.91 5.30 2.98 10.20 5.96 10.79 6.55 0.79 0.79 1.19 2.25 1.19 4.37 0 6.29 -3.31 6.89 -13.90 2.58z"/>
  <path d="M1042.24 280.12 c-3.24 -1.52 -13.77 -8.67 -22.31 -15.10 -5.76 -4.37 -5.96 -4.57 -6.16 -7.42 -0.20 -2.78 -0.07 -2.98 5.36 -8.61 10.59 -10.86 15.03 -20.59 15.03 -33.24 0 -9.80 -3.77 -20.92 -11.45 -33.77 l-3.84 -6.42 0.20 -6.82 0.20 -6.89 2.65 -0.20 c2.38 -0.20 3.64 0.40 11.12 5.30 8.94 5.83 28.01 17.94 51.77 32.77 l14.57 9.14 0.20 3.31 c0.13 3.24 -0.13 3.71 -9 17.88 -15.29 24.50 -31.32 46.41 -36.28 49.59 -2.71 1.85 -8.61 2.05 -12.05 0.46z"/>
  <path d="M81.17 255.16 c-0.53 -1.32 -0.53 -5.83 0 -7.15 0.26 -0.60 1.19 -1.06 2.18 -1.06 3.44 0 8.74 -2.05 11.32 -4.37 2.65 -2.45 4.77 -6.95 5.56 -11.85 1.06 -6.95 4.24 -76.27 4.57 -98.98 0.13 -12.71 0.13 -12.98 -1.59 -16.62 -2.65 -5.63 -7.28 -8.61 -14.63 -9.53 -3.71 -0.46 -3.77 -0.46 -4.17 -3.05 -0.26 -1.39 -0.26 -3.44 0 -4.57 l0.46 -1.99 23.50 0.13 23.57 0.20 15.29 32.77 c34.96 74.62 39.13 83.36 39.53 82.89 0.26 -0.26 3.84 -7.61 8.01 -16.35 4.17 -8.74 12.38 -26.02 18.34 -38.40 5.89 -12.38 14.83 -31.12 19.80 -41.71 l9.14 -19.20 23.64 -0.20 23.64 -0.13 0 4.50 0 4.57 -3.31 0.40 c-5.89 0.73 -8.81 1.92 -11.98 5.16 -5.10 4.97 -4.90 2.45 -3.71 66.60 0.73 35.35 1.39 57.20 1.85 58.92 1.52 5.83 6.55 9.60 14.17 10.66 l3.31 0.46 0 4.30 0 4.30 -30.79 0 -30.79 0 -0.20 -2.91 c-0.33 -4.77 0.20 -6.02 2.71 -6.02 3.51 0 8.67 -2.85 10.46 -5.69 l1.59 -2.58 0.20 -23.17 c0.07 -12.71 -0.07 -36.22 -0.33 -52.17 l-0.53 -29 -13.51 28.01 c-15.36 31.71 -24.63 51.18 -35.62 74.68 -4.17 8.94 -8.08 16.75 -8.61 17.35 -1.52 1.66 -7.55 1.66 -9 0 -0.60 -0.66 -3.71 -6.95 -7.02 -14.04 -3.24 -7.08 -13.84 -29.73 -23.57 -50.32 -9.73 -20.59 -19.20 -40.78 -21.05 -44.82 -3.05 -6.62 -3.51 -7.28 -3.91 -5.63 -0.53 2.18 -2.58 64.75 -2.71 82.89 -0.13 12.91 -0.13 12.91 1.72 16.68 2.18 4.44 4.97 6.42 10.39 7.55 l3.64 0.73 0.20 4.37 0.20 4.44 -25.75 0 c-22.91 0 -25.89 -0.13 -26.22 -1.06z"/>
  <path d="M302.37 255.76 c-0.79 -0.73 -0.53 -7.81 0.33 -8.67 0.46 -0.46 1.46 -0.79 2.32 -0.79 2.78 0 8.67 -2.71 11.78 -5.43 3.64 -3.24 7.75 -11.32 16.22 -31.98 2.98 -7.28 7.28 -17.68 9.60 -23.17 2.32 -5.43 6.89 -16.62 10.26 -24.83 3.38 -8.21 8.41 -20.52 11.26 -27.48 2.85 -6.89 7.15 -17.48 9.60 -23.50 4.97 -12.12 6.16 -14.70 7.22 -15.36 1.32 -0.93 12.78 -0.60 13.51 0.33 0.40 0.46 7.42 16.95 15.56 36.61 35.09 84.48 41.84 100.17 44.82 104.87 2.78 4.37 7.08 7.61 11.85 9 5.83 1.66 5.69 1.52 5.69 6.29 l0 4.24 -29.79 0 -29.79 0 -0.20 -4.17 c-0.20 -4.44 -0.26 -4.37 3.91 -5.03 3.44 -0.60 6.82 -3.05 7.08 -5.10 0.13 -0.99 -2.98 -9.53 -7.55 -20.86 -4.24 -10.53 -7.88 -19.53 -8.01 -19.93 -0.26 -0.66 -6.29 -0.86 -27.15 -0.86 l-26.75 0 -1.72 3.84 c-3.91 8.81 -12.98 32.44 -13.24 34.69 -0.66 4.37 1.85 6.82 8.41 8.14 l3.64 0.79 0 4.24 0 4.24 -24.23 0.20 c-13.31 0.07 -24.36 -0.07 -24.63 -0.33z m99.18 -69.19 c0.26 -0.26 -1.85 -6.02 -4.63 -12.91 -2.85 -6.82 -7.02 -17.08 -9.27 -22.71 -2.32 -5.63 -4.83 -11.72 -5.63 -13.57 l-1.39 -3.31 -10.20 25.03 c-5.63 13.77 -10.39 25.56 -10.59 26.28 -0.40 1.19 0 1.26 4.77 1.52 8.41 0.40 36.48 0.20 36.94 -0.33z"/>
  <path d="M489.41 251.79 c0.20 -4.24 0.26 -4.50 1.85 -4.70 4.10 -0.53 6.89 -1.72 9.34 -3.91 4.77 -4.30 4.63 -1.85 4.44 -68.13 -0.20 -56.01 -0.26 -58.99 -1.46 -61.18 -2.65 -5.03 -5.69 -7.08 -11.98 -8.28 l-3.97 -0.73 0 -4.30 0 -4.24 31.05 -0.20 c24.43 -0.13 31.18 0 31.65 0.66 0.66 1.06 0.66 6.55 0 7.55 -0.26 0.40 -2.25 1.06 -4.44 1.46 -4.63 0.93 -8.01 3.38 -9.93 7.15 -1.32 2.52 -1.32 3.91 -1.32 63.63 0 60.65 0 61.04 1.39 62.90 0.73 0.99 2.38 2.38 3.64 3.05 2.05 1.13 3.71 1.19 20.79 0.86 20.19 -0.33 25.56 -1.06 32.11 -4.17 5.30 -2.58 11.12 -8.67 14.10 -14.96 l2.52 -5.16 4.44 0.20 4.44 0.20 0.20 3.51 c0.20 3.11 -1.79 14.76 -4.97 28.80 l-0.99 4.44 -61.51 0 -61.57 0 0.20 -4.44z"/>
  <path d="M629.90 255.30 c-0.20 -0.46 -0.26 -2.32 -0.13 -4.04 0.20 -3.51 0.46 -3.77 5.43 -4.90 4.17 -0.99 6.69 -2.85 8.54 -6.22 l1.46 -2.78 0 -60.25 0 -60.25 -1.46 -3.11 c-2.32 -5.10 -8.54 -8.47 -15.43 -8.47 l-1.99 0 0 -4.63 0 -4.63 32.64 0.13 32.57 0.20 0 4.30 0 4.24 -4.10 0.86 c-2.32 0.46 -5.03 1.26 -6.09 1.79 -2.65 1.39 -5.23 4.63 -6.02 7.68 -0.46 1.72 -0.66 22.25 -0.53 62.37 0.20 55.88 0.26 59.98 1.39 61.64 2.52 3.84 3.44 4.10 18.67 4.30 16.42 0.26 31.38 -0.66 37.47 -2.38 8.87 -2.45 14.17 -6.95 19.13 -16.09 l2.98 -5.56 2.91 -0.20 c5.50 -0.40 6.02 0 6.02 4.57 0 3.77 -4.63 27.74 -5.96 30.92 l-0.66 1.46 -63.23 0 c-53.10 0 -63.29 -0.13 -63.63 -0.93z"/>
  <path d="M789.19 251.92 c0 -4.70 -0.33 -4.37 5.36 -5.30 5.30 -0.79 9.53 -5.43 10.20 -11.12 0.20 -1.92 0.33 -13.31 0.20 -25.36 l-0.20 -21.85 -2.32 -4.63 c-4.97 -9.60 -38.86 -68.06 -40.98 -70.58 -2.91 -3.44 -8.81 -6.29 -14.76 -7.22 -2.65 -0.40 -5.23 -0.86 -5.63 -0.99 -0.60 -0.13 -0.86 -1.66 -0.86 -4.57 l0 -4.30 34.63 0.13 34.56 0.20 0 3.97 0 3.97 -3.91 0.79 c-4.24 0.79 -6.82 2.38 -8.34 5.03 -0.93 1.66 -0.79 2.05 1.59 6.89 3.77 7.68 21.58 39.59 26.28 47.07 1.46 2.25 0.20 3.77 11.72 -14.43 16.88 -26.62 21.32 -34.36 21.32 -37.47 0 -2.18 -3.71 -6.02 -6.36 -6.55 -5.30 -1.06 -5.23 -0.99 -5.23 -5.30 l0 -3.97 25.42 -0.20 c19.93 -0.13 25.56 0.07 26.02 0.66 0.60 0.99 0.66 4.90 0.13 7.02 -0.26 0.86 -1.13 1.59 -2.18 1.85 -7.68 1.66 -12.78 4.70 -17.08 10.13 -2.91 3.71 -26.75 40.32 -38.80 59.52 -4.37 6.95 -6.49 10.99 -6.75 12.91 -0.26 1.52 -0.33 13.04 -0.20 25.62 0.20 22.18 0.26 22.91 1.66 25.62 2.52 4.63 7.55 7.48 13.24 7.48 1.79 0 2.12 0.26 2.52 1.99 0.26 1.13 0.26 3.18 0 4.63 l-0.46 2.65 -30.39 0 -30.39 0 0 -4.30z"/>
  <path d="M1091.10 198.69 c-8.81 -5.03 -52.90 -32.97 -56.74 -35.95 -4.24 -3.24 -6.29 -7.15 -8.14 -15.49 -2.18 -10.06 -4.77 -31.25 -4.90 -39.99 l-0.07 -8.21 10.59 -2.71 c5.83 -1.52 17.15 -4.77 25.16 -7.28 16.02 -4.97 30.85 -8.81 41.05 -10.66 5.83 -1.06 10.39 -1.26 37.41 -1.26 28.27 0 31.05 0.07 33.96 1.19 4.17 1.66 5.10 3.11 5.10 8.28 0 6.82 -0.20 7.02 -22.51 31.58 -32.97 36.28 -35.35 40.12 -40.78 65.02 -3.38 15.56 -3.51 16.02 -4.97 17.48 -0.99 0.99 -2.18 1.26 -5.43 1.26 -3.77 0 -4.70 -0.33 -9.73 -3.24z m8.08 -82.10 c7.94 -5.03 7.15 -14.57 -1.59 -18.87 -3.11 -1.52 -3.84 -1.66 -6.09 -0.99 -3.18 0.86 -7.81 5.43 -8.81 8.67 -1.06 3.64 1.26 8.41 5.50 11.12 4.10 2.58 7.02 2.58 10.99 0.07z"/>
 </g>
 <g fill="#ffffff">
  <path d="M0 180.08 l0 -180.08 625 0 625 0 0 180.08 0 180.08 -625 0 -625 0 0 -180.08z m1029.20 102.62 c2.52 -2.71 0.93 -4.24 -11.19 -11.19 -10.86 -6.16 -18.41 -11.72 -21.19 -15.56 -0.79 -1.13 -1.13 -1.99 -0.66 -2.18 2.91 -0.99 9.80 -5.89 13.51 -9.53 12.45 -12.38 15.49 -32.71 7.35 -49.26 -5.89 -11.85 -13.84 -18.07 -37.27 -29.13 -29.99 -14.17 -36.41 -18.54 -40.72 -27.81 -1.59 -3.38 -1.85 -4.83 -1.85 -9.60 0 -4.77 0.26 -6.09 1.79 -8.94 4.50 -8.61 14.04 -13.57 26.09 -13.57 11.32 0 20.79 3.91 28.73 11.92 5.56 5.56 9.20 11.98 12.31 21.91 0.99 3.05 2.25 6.09 2.78 6.75 1.19 1.39 4.30 1.46 5.36 0.20 0.99 -1.19 -1.72 -41.51 -2.85 -42.24 -0.40 -0.26 -2.05 -0.53 -3.77 -0.53 -1.66 0 -5.96 -0.99 -9.60 -2.25 -13.84 -4.63 -17.88 -5.30 -31.71 -5.36 -13.90 0 -18.94 0.86 -27.94 4.97 -29.53 13.37 -33.24 47.34 -7.35 66.87 6.42 4.83 12.84 8.41 29.86 16.35 23.90 11.19 30.85 16.09 35.02 24.56 2.12 4.24 2.18 4.70 2.18 12.38 0 9.20 -0.93 12.05 -5.63 17.15 -6.09 6.62 -14.63 10 -25.16 9.86 -3.44 0 -7.75 -0.40 -9.53 -0.79 -10.53 -2.52 -20.86 -8.74 -26.88 -16.15 -3.91 -4.83 -8.54 -14.04 -10.59 -20.99 -1.72 -5.89 -2.25 -6.62 -4.57 -6.62 -3.38 0 -3.38 0.20 -3.38 21.32 l0 19.73 1.52 0.60 c0.79 0.33 5.50 2.25 10.39 4.24 11.52 4.70 19.66 7.28 40.39 13.04 17.74 4.90 43.90 13.51 55.61 18.34 3.84 1.52 7.15 2.85 7.35 2.85 0.20 0 0.93 -0.60 1.59 -1.32z m23.37 -5.16 c2.58 -1.72 11.45 -12.78 19.80 -24.76 10.99 -15.76 24.96 -38.27 25.03 -40.25 0 -1.39 -1.85 -2.78 -14.57 -10.73 -25.29 -15.89 -43.10 -27.15 -51.77 -32.84 -4.63 -2.98 -8.67 -5.36 -9.07 -5.23 -0.40 0.13 -0.79 2.38 -0.93 5.03 -0.20 4.83 -0.20 4.83 3.64 11.19 8.08 13.64 11.52 24.03 11.59 35.55 0.07 14.57 -3.97 24.03 -15.23 35.55 -3.71 3.84 -5.50 6.09 -5.23 6.75 0.73 1.92 23.17 17.88 28.47 20.33 2.98 1.32 5.63 1.19 8.28 -0.60z m-921.61 -25.75 c-0.20 -2.38 -0.26 -2.45 -3.84 -3.11 -5.43 -1.13 -8.21 -3.11 -10.39 -7.55 l-1.85 -3.77 0.13 -16.22 c0.13 -16.15 1.79 -69.65 2.58 -83.95 0.33 -4.90 0.66 -7.42 1.19 -7.22 0.40 0.13 3.24 5.69 6.42 12.45 3.11 6.69 13.11 27.81 22.11 46.94 9 19.13 19.20 40.85 22.64 48.33 3.44 7.42 6.69 14.04 7.28 14.70 1.39 1.52 3.64 1.52 5.03 0.07 0.53 -0.66 4.63 -8.94 9.07 -18.41 15.29 -32.51 18.41 -39.13 34.69 -72.83 9 -18.54 16.62 -34.03 16.95 -34.36 1.06 -1.06 1.39 11.39 1.52 62.17 l0.13 51.64 -1.59 2.58 c-1.79 2.85 -6.95 5.69 -10.46 5.69 -1.72 0 -2.25 0.33 -2.58 1.66 -0.93 3.84 -2.18 3.64 29 3.51 l28.67 -0.20 0 -2.32 c0 -2.25 -0.07 -2.32 -3.31 -2.78 -7.61 -1.06 -12.65 -4.83 -14.17 -10.66 -0.46 -1.79 -1.13 -23.83 -1.85 -60.78 -1.26 -66.41 -1.39 -63.69 3.71 -68.72 3.18 -3.24 6.09 -4.44 11.98 -5.16 l3.31 -0.40 0 -2.58 0 -2.52 -21.65 0.13 -21.65 0.20 -9.14 19.20 c-4.97 10.59 -12.58 26.48 -16.82 35.42 -4.30 8.94 -10.86 22.64 -14.50 30.46 -12.65 26.68 -16.22 33.77 -17.08 33.77 -0.86 0 -4.97 -8.67 -41.25 -86.07 l-15.29 -32.77 -21.58 -0.20 c-20.13 -0.13 -21.58 -0.07 -21.78 0.99 -0.66 3.18 0.13 4.04 3.97 4.50 7.35 0.93 11.98 3.91 14.63 9.53 1.72 3.71 1.72 3.77 1.59 18.60 -0.26 23.44 -3.44 93.55 -4.57 100.97 -0.79 4.90 -2.91 9.40 -5.56 11.85 -2.58 2.32 -7.88 4.37 -11.32 4.37 -1.99 0 -2.98 1.72 -2.25 3.97 0.40 1.32 0.99 1.32 24.23 1.32 l23.83 0 -0.20 -2.45z m218.29 -0.13 c0 -2.25 -0.07 -2.32 -3.71 -3.05 -7.15 -1.39 -9.93 -4.97 -8.67 -11.26 0.66 -3.11 9.67 -26.75 13.57 -35.55 l1.72 -3.84 28.73 0 c22.44 0 28.87 0.20 29.13 0.86 0.13 0.40 3.77 9.34 8.01 19.86 4.24 10.46 7.88 20.19 8.08 21.65 0.73 4.44 -2.32 7.42 -8.54 8.47 -2.65 0.46 -2.78 0.60 -2.78 2.78 l0 2.32 27.81 0 27.81 0 0 -2.25 c0 -2.52 -0.33 -2.78 -5.69 -4.30 -4.77 -1.39 -9.07 -4.63 -11.85 -9 -2.98 -4.70 -9.73 -20.39 -44.82 -104.87 -8.14 -19.66 -15.16 -36.15 -15.56 -36.61 -0.73 -0.93 -8.28 -1.19 -9.53 -0.33 -1.06 0.66 -2.25 3.24 -7.22 15.36 -2.45 6.02 -6.75 16.62 -9.60 23.50 -2.85 6.95 -7.88 19.27 -11.26 27.48 -3.38 8.21 -7.94 19.40 -10.26 24.83 -2.32 5.50 -6.62 15.89 -9.60 23.17 -8.47 20.66 -12.58 28.73 -16.22 31.98 -3.11 2.71 -9 5.43 -11.78 5.43 -0.86 0 -1.85 0.33 -2.32 0.79 -0.86 0.86 -1.06 3.97 -0.33 4.70 0.26 0.26 10.46 0.40 22.64 0.33 l22.25 -0.20 0 -2.25z m262.12 -1.85 c2.65 -11.98 5.23 -26.55 4.83 -27.54 -0.26 -0.79 -1.19 -1.13 -2.71 -1.13 -2.25 0 -2.45 0.20 -4.83 5.16 -2.98 6.22 -8.81 12.31 -14.10 14.90 -6.75 3.24 -11.78 3.84 -34.10 4.17 -18.94 0.33 -20.72 0.26 -22.78 -0.86 -1.26 -0.66 -2.91 -2.05 -3.64 -3.05 -1.39 -1.85 -1.39 -2.18 -1.39 -64.88 0 -61.71 0 -63.10 1.32 -65.61 1.99 -3.91 5.36 -6.29 10.13 -7.15 4.30 -0.79 5.30 -1.79 4.44 -4.50 -0.40 -1.32 -0.86 -1.32 -29.66 -1.19 l-29.26 0.20 0 2.25 c0 2.32 0 2.32 3.97 3.05 6.29 1.19 9.34 3.24 11.98 8.28 1.19 2.18 1.26 5.23 1.46 63.16 0.20 68.46 0.33 65.74 -4.44 70.11 -2.45 2.18 -5.23 3.38 -9.34 3.91 -1.39 0.13 -1.66 0.60 -1.85 2.71 l-0.20 2.45 59.59 0 59.52 0 1.06 -4.44z m144.07 2.98 c0.93 -2.25 5.96 -26.62 5.96 -28.93 0 -1.59 -0.33 -2.12 -1.66 -2.45 -2.65 -0.66 -3.38 0 -6.36 5.69 -4.57 8.81 -10.20 13.57 -19.07 16.02 -6.29 1.72 -21.12 2.65 -39.46 2.38 -17.41 -0.20 -18.07 -0.40 -20.66 -4.30 -1.13 -1.66 -1.19 -5.83 -1.39 -63.63 -0.13 -41.51 0.07 -62.63 0.53 -64.35 0.79 -3.05 3.38 -6.29 6.02 -7.68 1.06 -0.53 3.77 -1.32 6.09 -1.79 4.10 -0.86 4.10 -0.86 4.10 -3.11 l0 -2.32 -30.59 -0.20 -30.65 -0.13 0 2.65 c0 2.52 0.13 2.65 1.99 2.65 6.89 0 13.11 3.38 15.43 8.47 l1.46 3.11 0 62.24 0 62.24 -1.46 2.78 c-1.85 3.38 -4.37 5.23 -8.54 6.22 -4.24 0.99 -5.16 1.46 -5.43 2.85 -0.66 3.18 -3.71 3.05 61.77 3.05 l61.24 0 0.66 -1.46z m92.82 0 c0.46 -2.85 -0.13 -3.84 -2.32 -3.84 -5.69 0 -10.73 -2.85 -13.24 -7.48 -1.39 -2.71 -1.46 -3.38 -1.66 -27.61 -0.13 -13.64 -0.07 -26.09 0.20 -27.61 0.26 -1.92 2.38 -5.96 6.75 -12.91 12.05 -19.20 35.88 -55.81 38.80 -59.52 4.30 -5.43 9.40 -8.47 17.08 -10.13 1.85 -0.40 2.91 -2.71 2.18 -4.63 -0.40 -0.99 -2.91 -1.06 -24.03 -0.93 l-23.57 0.20 -0.20 1.59 c-0.33 1.92 1.32 3.38 3.77 3.38 2.18 0 5.63 2.12 7.02 4.24 1.79 2.71 1.39 7.55 -0.99 12.31 -4.50 8.94 -29.33 48.27 -31.25 49.39 -1.52 0.99 -3.91 -2.78 -19.53 -30.72 -11.06 -19.73 -12.78 -23.44 -12.78 -26.81 0 -4.90 2.71 -7.35 9.27 -8.67 3.44 -0.66 3.64 -0.86 3.64 -2.71 l0 -1.99 -32.57 -0.20 -32.64 -0.13 0 2.32 c0 2.65 -0.20 2.52 6.49 3.58 5.96 0.93 11.85 3.77 14.76 7.22 2.12 2.52 36.02 60.98 40.98 70.58 l2.32 4.63 0.20 23.83 c0.13 13.18 0 25.42 -0.20 27.34 -0.66 5.69 -4.90 10.33 -10.20 11.12 -5.43 0.86 -5.36 0.86 -5.36 3.31 l0 2.32 28.40 0 28.40 0 0.26 -1.46z m256.02 -54.09 c1.46 -1.46 1.59 -1.92 4.97 -17.48 5.43 -24.89 7.81 -28.73 40.78 -65.02 21.05 -23.11 22.51 -25.03 22.51 -29.59 0 -3.05 -1.46 -4.83 -5.10 -6.29 -2.91 -1.06 -5.63 -1.19 -31.98 -1.19 -25.03 0 -29.66 0.20 -35.42 1.26 -10.20 1.85 -25.03 5.69 -41.05 10.66 -8.01 2.52 -19.33 5.76 -25.16 7.28 l-10.59 2.71 0.13 6.75 c0.20 7.61 2.91 28.60 4.90 37.54 1.79 8.28 3.84 12.18 8.08 15.43 3.84 2.98 47.93 30.92 56.74 35.95 6.16 3.58 9.07 4.10 11.19 1.99z"/>
  <path d="M362.02 188.89 c-3.58 -0.13 -5.83 -0.53 -5.83 -0.93 0 -0.40 4.50 -11.78 10 -25.36 13.84 -33.96 13.90 -34.16 14.43 -34.16 0.53 0 2.25 3.97 16.88 39.72 l8.21 20.19 -3.38 0.46 c-3.44 0.40 -29.59 0.46 -40.32 0.07z"/>
  <path d="M1089.71 120.30 c-1.32 -0.53 -3.38 -1.59 -4.57 -2.45 -2.25 -1.59 -5.30 -7.22 -5.30 -9.86 0 -7.28 6.75 -13.97 14.30 -13.97 3.24 0 8.74 3.11 10.73 6.09 2.52 3.84 2.78 9.73 0.66 13.77 -2.91 5.36 -10.39 8.41 -15.82 6.42z"/>
 </g>
</svg>